<svg width="45" height="45" viewBox="0 0 45 45" fill="none" xmlns="http://www.w3.org/2000/svg">
<path d="M22.1429 0C9.91366 0 0 9.91411 0 22.1429C0 34.3716 9.91366 44.2857 22.1429 44.2857C34.3721 44.2857 44.2857 34.3716 44.2857 22.1429C44.2857 9.91411 34.3721 0 22.1429 0ZM26.9706 13.0696H35.2587V15.5433H26.9706V13.0696ZM22.7817 26.0441C22.7817 32.1752 16.4009 31.9736 16.4009 31.9736H10.5534H10.3817H5.94765V11.8862H10.3817H10.5534H16.4004C19.5772 11.8862 22.0849 13.64 22.0849 17.2345C22.0849 20.8295 19.0195 21.0573 19.0195 21.0573C23.0603 21.0573 22.7817 26.0441 22.7817 26.0441ZM31.41 29.2123C34.749 29.2123 34.6307 27.0512 34.6307 27.0512H38.1659C38.1659 32.7864 31.2922 32.3936 31.2922 32.3936C23.0435 32.3936 23.574 24.7144 23.574 24.7144C23.574 24.7144 23.5677 16.9971 31.2913 16.9971C39.4222 16.9971 38.2837 25.7161 38.2837 25.7161H27.8749C27.8749 29.4488 31.41 29.2123 31.41 29.2123Z" fill="white"/>
</svg>
