<svg width="46" height="45" viewBox="0 0 46 45" fill="none" xmlns="http://www.w3.org/2000/svg">
<path d="M22.9983 0C10.7691 0 0.855469 9.91366 0.855469 22.1429C0.855469 34.3721 10.7691 44.2857 22.9983 44.2857C35.2275 44.2857 45.1412 34.3721 45.1412 22.1429C45.1412 9.91366 35.2275 0 22.9983 0ZM31.4459 11.2764L28.3833 11.2778C25.9817 11.2778 25.5173 12.419 25.5173 14.0935V17.7859H31.2443L31.2416 23.5691H25.5177V38.4101H19.5443V23.5691H14.5507V17.7859H19.5443V13.5208C19.5443 8.57127 22.5684 5.87562 26.9834 5.87562L31.4464 5.88241V11.2764H31.4459Z" fill="white"/>
</svg>
