<svg width="20" height="20" viewBox="0 0 20 20" fill="none" xmlns="http://www.w3.org/2000/svg">
<g clip-path="url(#clip0)">
<path d="M13.2588 10.1024L20.0013 14.3649V5.65991L13.2588 10.1024Z" fill="white"/>
<path d="M0 5.65991V14.3649L6.7425 10.1024L0 5.65991Z" fill="white"/>
<path d="M18.7491 3.125H1.2491C0.625348 3.125 0.130348 3.59 0.0365982 4.18875L9.9991 10.7525L19.9616 4.18875C19.8678 3.59 19.3728 3.125 18.7491 3.125Z" fill="white"/>
<path d="M12.113 10.8577L10.3443 12.0227C10.2393 12.0914 10.1205 12.1252 10.0005 12.1252C9.88054 12.1252 9.76179 12.0914 9.65679 12.0227L7.88804 10.8564L0.0405388 15.8202C0.136789 16.4139 0.629289 16.8752 1.25054 16.8752H18.7505C19.3718 16.8752 19.8643 16.4139 19.9605 15.8202L12.113 10.8577Z" fill="white"/>
</g>
<defs>
<clipPath id="clip0">
<rect width="20" height="20" fill="white"/>
</clipPath>
</defs>
</svg>
