<svg width="37" height="37" viewBox="0 0 37 37" fill="none" xmlns="http://www.w3.org/2000/svg">
<path d="M18.7216 36.1744C14.4429 36.1744 10.2929 34.6522 7.03621 31.8882C6.27153 31.2396 5.55421 30.5206 4.90437 29.7511C2.16138 26.4998 0.651001 22.3636 0.651001 18.1038C0.651001 13.2769 2.53063 8.73897 5.94371 5.32589C9.3568 1.9128 13.8947 0.0331726 18.7216 0.0331726C23.5485 0.0331726 28.0864 1.9128 31.4995 5.32589C34.9126 8.73897 36.7922 13.2769 36.7922 18.1038C36.7922 22.3636 35.2818 26.4999 32.5392 29.7507C31.889 30.5206 31.1717 31.2396 30.4068 31.8884C27.1503 34.6522 23.0003 36.1744 18.7216 36.1744ZM18.7216 2.292C10.003 2.292 2.90983 9.38514 2.90983 18.1038C2.90983 21.8312 4.23117 25.4502 6.63047 28.2941C7.19941 28.9678 7.82772 29.5976 8.4976 30.1658C11.3468 32.5839 14.9777 33.9156 18.7216 33.9156C22.4655 33.9156 26.0964 32.5839 28.9454 30.166C29.6155 29.5976 30.2438 28.9677 30.8131 28.2936C33.2121 25.4503 34.5334 21.8313 34.5334 18.1038C34.5334 9.38514 27.4403 2.292 18.7216 2.292Z" fill="#919191"/>
<path d="M18.7216 18.1038C14.985 18.1038 11.9451 15.0639 11.9451 11.3273C11.9451 7.5907 14.985 4.55081 18.7216 4.55081C22.4582 4.55081 25.4981 7.5907 25.4981 11.3273C25.4981 15.0639 22.4582 18.1038 18.7216 18.1038ZM18.7216 6.80964C16.2305 6.80964 14.204 8.83623 14.204 11.3273C14.204 13.8184 16.2305 15.8449 18.7216 15.8449C21.2127 15.8449 23.2393 13.8184 23.2393 11.3273C23.2393 8.83623 21.2127 6.80964 18.7216 6.80964Z" fill="#919191"/>
<path d="M29.6771 32.1568C29.586 32.1568 29.4935 32.1457 29.4012 32.1226C28.7963 31.9707 28.4289 31.3572 28.5808 30.7522C28.7835 29.9444 28.8863 29.1088 28.8863 28.2685C28.8863 22.7425 24.3937 18.1838 18.8703 18.1045L18.7216 18.1038L18.5729 18.1045C13.0496 18.1838 8.55689 22.7425 8.55689 28.2685C8.55689 29.1088 8.65974 29.9444 8.86247 30.7522C9.0143 31.3572 8.64696 31.9707 8.04202 32.1226C7.43708 32.2744 6.82345 31.9071 6.67162 31.3021C6.42371 30.3147 6.29807 29.294 6.29807 28.2685C6.29807 24.9807 7.56985 21.8815 9.87915 19.5417C12.1862 17.2042 15.264 15.8917 18.5456 15.8458C18.5509 15.8457 18.5561 15.8457 18.5614 15.8457L18.7216 15.845L18.8818 15.8457C18.8871 15.8457 18.8924 15.8457 18.8977 15.8457C22.1792 15.8916 25.257 17.2041 27.5641 19.5416C29.8734 21.8815 31.1452 24.9807 31.1452 28.2685C31.1452 29.294 31.0195 30.3147 30.7716 31.3021C30.6429 31.8147 30.1827 32.1567 29.6771 32.1568Z" fill="#919191"/>
</svg>
