<svg width="144" height="54" viewBox="0 0 144 54" fill="none" xmlns="http://www.w3.org/2000/svg">
<path d="M2.24622 34.1281V9.9707H10.5046V27.3889H22.5797V34.1281H2.24622ZM25.3562 34.1281V9.9707H46.0713V16.4334H33.6145V19.06H43.6077V24.8315H33.6145V27.6654H46.4877V34.1281H25.3562ZM106.359 34.1281L105.179 30.3611H95.845L94.6653 34.1281H86.3376L95.5327 9.9707H105.873L115.068 34.1281H106.359ZM97.8923 23.9329H103.132L100.495 15.6385L97.8923 23.9329ZM117.39 34.1281V9.9707H128.667C133.27 9.9707 136.844 10.9729 139.389 12.9774C141.956 14.9819 143.24 17.931 143.24 21.8248C143.24 26.2254 141.945 29.3704 139.354 31.2597C136.763 33.172 133.119 34.1281 128.424 34.1281H117.39ZM125.578 27.8728H129.152C132.807 27.8728 134.635 25.7762 134.635 21.5829C134.635 18.0116 132.865 16.2261 129.326 16.2261H125.578V27.8728Z" fill="white"/>
<path d="M14.2249 45.792L12.2124 51.84H11.0153L9.51453 47.3645L7.98778 51.84H6.782L4.76947 45.792H5.94055L7.44995 50.3885L9.02007 45.792H10.061L11.5965 50.4144L13.1492 45.792H14.2249ZM29.587 50.8982V51.84H25.0327V45.792H29.4655V46.7338H26.1605V48.3062H29.0925V49.2307H26.1605V50.8982H29.587ZM45.036 48.695C45.3713 48.8043 45.6371 48.9888 45.8341 49.248C46.0305 49.5016 46.129 49.8182 46.129 50.1984C46.129 50.7224 45.9265 51.1285 45.5218 51.4166C45.1167 51.6987 44.5268 51.84 43.7521 51.84H40.7333V45.792H43.5786C44.2956 45.792 44.8478 45.9333 45.2355 46.2154C45.6228 46.4918 45.8167 46.875 45.8167 47.3645C45.8167 47.6638 45.7473 47.9291 45.6085 48.1594C45.4697 48.3896 45.2789 48.5685 45.036 48.695ZM41.861 46.6733V48.3408H43.4572C43.8502 48.3408 44.1512 48.2717 44.3594 48.1334C44.5732 47.9896 44.6803 47.7822 44.6803 47.5114C44.6803 47.2349 44.5732 47.0275 44.3594 46.8893C44.1512 46.7454 43.8502 46.6733 43.4572 46.6733H41.861ZM43.6827 50.9587C44.5559 50.9587 44.9926 50.668 44.9926 50.0861C44.9926 49.5042 44.5559 49.2134 43.6827 49.2134H41.861V50.9587H43.6827Z" fill="#FB1B3D"/>
<path d="M59.0695 51.8919C58.6184 51.8919 58.1847 51.8198 57.7683 51.6759C57.3576 51.5321 57.0396 51.342 56.8141 51.1057L57.0656 50.6132C57.2851 50.8322 57.5775 51.0106 57.9418 51.1489C58.3061 51.2815 58.6817 51.3476 59.0695 51.3476C59.613 51.3476 60.0207 51.2495 60.2926 51.0538C60.5642 50.8521 60.7003 50.5929 60.7003 50.2762C60.7003 50.0343 60.6249 49.8412 60.4748 49.6974C60.3299 49.5535 60.1508 49.4438 59.937 49.369C59.7227 49.2882 59.4252 49.2018 59.0435 49.1098C58.5863 48.9945 58.222 48.8852 57.9505 48.7815C57.6785 48.6722 57.4443 48.5081 57.2478 48.289C57.057 48.07 56.9616 47.7737 56.9616 47.3991C56.9616 47.0937 57.0422 46.8172 57.2044 46.5697C57.3662 46.3161 57.6148 46.1148 57.9505 45.9649C58.2857 45.815 58.7021 45.7402 59.1996 45.7402C59.5466 45.7402 59.8849 45.7891 60.2146 45.8871C60.5498 45.9791 60.8391 46.1087 61.082 46.2759L60.8652 46.7857C60.6106 46.6185 60.3386 46.4949 60.0497 46.4142C59.7604 46.3278 59.4772 46.2846 59.1996 46.2846C58.6674 46.2846 58.2654 46.3882 57.9938 46.5956C57.7275 46.7973 57.5948 47.0591 57.5948 47.3818C57.5948 47.6238 57.6668 47.8194 57.8117 47.9694C57.9617 48.1132 58.1469 48.2255 58.3669 48.3063C58.5924 48.381 58.893 48.4649 59.269 48.5569C59.714 48.6662 60.0727 48.7759 60.3447 48.8852C60.6223 48.9889 60.8565 49.15 61.0473 49.369C61.2382 49.582 61.3336 49.8732 61.3336 50.2417C61.3336 50.5471 61.2495 50.8262 61.082 51.0797C60.9198 51.3273 60.6683 51.526 60.3273 51.6759C59.986 51.8198 59.5666 51.8919 59.0695 51.8919ZM73.7163 46.345H71.5823V45.7921H76.4922V46.345H74.3582V51.8401H73.7163V46.345ZM89.7346 51.8919C88.9482 51.8919 88.3349 51.6673 87.8955 51.218C87.4562 50.7687 87.2363 50.1151 87.2363 49.2567V45.7921H87.8782V49.2308C87.8782 49.9337 88.0374 50.4577 88.3553 50.8033C88.6732 51.1489 89.133 51.3217 89.7346 51.3217C90.3418 51.3217 90.8046 51.1489 91.1225 50.8033C91.4404 50.4577 91.5996 49.9337 91.5996 49.2308V45.7921H92.2242V49.2567C92.2242 50.1151 92.0043 50.7687 91.5649 51.218C91.1312 51.6673 90.5209 51.8919 89.7346 51.8919ZM104.048 45.7921H106.52C107.162 45.7921 107.728 45.9217 108.22 46.1809C108.712 46.4345 109.093 46.7913 109.365 47.2522C109.637 47.7071 109.773 48.2286 109.773 48.8161C109.773 49.4036 109.637 49.9276 109.365 50.3886C109.093 50.8434 108.712 51.2007 108.22 51.4599C107.728 51.7135 107.162 51.8401 106.52 51.8401H104.048V45.7921ZM106.485 51.2871C107.017 51.2871 107.483 51.1834 107.882 50.9761C108.281 50.7631 108.59 50.4719 108.81 50.1034C109.03 49.7289 109.14 49.2999 109.14 48.8161C109.14 48.3322 109.03 47.9058 108.81 47.5374C108.59 47.1628 108.281 46.8721 107.882 46.6647C107.483 46.4517 107.017 46.345 106.485 46.345H104.69V51.2871H106.485ZM121.104 45.7921H121.746V51.8401H121.104V45.7921ZM136.265 51.8919C135.664 51.8919 135.117 51.7593 134.625 51.4945C134.139 51.2236 133.758 50.8551 133.48 50.3886C133.209 49.922 133.072 49.398 133.072 48.8161C133.072 48.2342 133.209 47.7102 133.48 47.2436C133.758 46.777 134.139 46.4111 134.625 46.1463C135.117 45.8755 135.664 45.7402 136.265 45.7402C136.866 45.7402 137.407 45.8729 137.887 46.1377C138.373 46.4025 138.754 46.7714 139.032 47.2436C139.31 47.7102 139.448 48.2342 139.448 48.8161C139.448 49.398 139.31 49.925 139.032 50.3972C138.754 50.8638 138.373 51.2297 137.887 51.4945C137.407 51.7593 136.866 51.8919 136.265 51.8919ZM136.265 51.3217C136.745 51.3217 137.179 51.215 137.566 51.002C137.954 50.783 138.257 50.4836 138.477 50.1034C138.697 49.7177 138.806 49.2882 138.806 48.8161C138.806 48.3439 138.697 47.9175 138.477 47.5374C138.257 47.1516 137.954 46.8518 137.566 46.6388C137.179 46.4198 136.745 46.3105 136.265 46.3105C135.785 46.3105 135.348 46.4198 134.955 46.6388C134.568 46.8518 134.261 47.1516 134.035 47.5374C133.816 47.9175 133.706 48.3439 133.706 48.8161C133.706 49.2882 133.816 49.7177 134.035 50.1034C134.261 50.4836 134.568 50.783 134.955 51.002C135.348 51.215 135.785 51.3217 136.265 51.3217Z" fill="white"/>
<path d="M65.0815 15.1867L68.5943 13.3309L72.2915 15.1867H65.0815ZM75.4343 13.3309L68.5943 8.50586L61.0144 13.3309H75.4343ZM57.6868 15.1867V28.5482L68.5943 34.8579L80.241 28.5482V15.1867L68.5943 21.3107L57.6868 15.1867Z" stroke="#FB1B3D" stroke-width="2"/>
</svg>
