<svg width="44" height="44" viewBox="0 0 44 44" fill="none" xmlns="http://www.w3.org/2000/svg">
<path d="M22 0C9.85159 0 0 9.85159 0 22C0 34.1484 9.85159 44 22 44C34.1484 44 44 34.1484 44 22C44 9.85159 34.1484 0 22 0ZM34.5566 27.2083C34.4955 28.5531 34.2817 29.4712 33.9695 30.2748C33.3132 31.9718 31.9718 33.3132 30.2748 33.9695C29.4715 34.2817 28.5531 34.4952 27.2086 34.5566C25.8615 34.618 25.4311 34.6328 22.0003 34.6328C18.5692 34.6328 18.1392 34.618 16.7917 34.5566C15.4473 34.4952 14.5288 34.2817 13.7255 33.9695C12.8822 33.6523 12.1189 33.1551 11.4878 32.5122C10.8452 31.8815 10.3481 31.1178 10.0309 30.2748C9.71866 29.4715 9.50482 28.5531 9.44373 27.2086C9.38162 25.8611 9.36719 25.4308 9.36719 22C9.36719 18.5692 9.38162 18.1389 9.44339 16.7917C9.50449 15.4469 9.71799 14.5288 10.0302 13.7252C10.3474 12.8822 10.8449 12.1185 11.4878 11.4878C12.1185 10.8449 12.8822 10.3477 13.7252 10.0305C14.5288 9.71832 15.4469 9.50482 16.7917 9.44339C18.1389 9.38196 18.5692 9.36719 22 9.36719C25.4308 9.36719 25.8611 9.38196 27.2083 9.44373C28.5531 9.50482 29.4712 9.71832 30.2748 10.0302C31.1178 10.3474 31.8815 10.8449 32.5126 11.4878C33.1551 12.1189 33.6526 12.8822 33.9695 13.7252C34.282 14.5288 34.4955 15.4469 34.5569 16.7917C34.6184 18.1389 34.6328 18.5692 34.6328 22C34.6328 25.4308 34.6184 25.8611 34.5566 27.2083Z" fill="white"/>
</svg>
