<svg width="16" height="20" viewBox="0 0 16 20" fill="none" xmlns="http://www.w3.org/2000/svg">
<path d="M8.25115 0.00416853C4.18956 -0.132709 0.854099 3.11898 0.854099 7.14965C0.854099 11.724 5.24392 15.0438 7.70441 19.818C7.82934 20.0604 8.17829 20.0608 8.30364 19.8184C10.5295 15.5225 14.3338 12.6419 15.0388 8.50332C15.7688 4.2207 12.593 0.150548 8.25115 0.00416853ZM8.00367 10.8947C5.9354 10.8947 4.25868 9.21789 4.25868 7.14965C4.25868 5.08142 5.93544 3.40466 8.00367 3.40466C10.0719 3.40466 11.7487 5.08142 11.7487 7.14965C11.7487 9.21789 10.0719 10.8947 8.00367 10.8947Z" fill="white"/>
</svg>
