<svg width="405" height="684" viewBox="0 0 405 684" fill="none" xmlns="http://www.w3.org/2000/svg">
<g filter="url(#filter0_d)">
<path d="M344.963 33.5L134 33M344.963 33.5L344.79 34L324.888 111M344.963 33.5L262.493 49.113M134 33L190.023 54.726L262.493 49.113M134 33L76 22L119.247 84L262.493 125M134 33L262.493 125M365.233 205.842L331.611 300.68M365.233 205.842L397.651 77L324.888 111M365.233 205.842L397.651 300.039M365.233 205.842L355.061 133.421L324.888 111M237.989 421.519L331.611 300.68M237.989 421.519L293.15 512.239M237.989 421.519L397.651 300.039M331.611 300.68L397.651 300.039M293.15 512.239L402.507 437.851M293.15 512.239L230.523 661.47M293.15 512.239L373.151 547.539M293.15 512.239L237.98 533.217M293.15 512.239L397.651 300.039M373.151 547.539L402.507 437.851M373.151 547.539L403.096 665.607L230.523 661.47M373.151 547.539L230.523 661.47M402.507 437.851L397.651 300.039M230.523 661.47C230.523 664.78 123.712 676.536 70.3066 682M230.523 661.47L198.339 614.38M237.98 533.217L198.339 614.38M237.98 533.217L123.85 611.307M70.3066 682L123.85 611.307M70.3066 682L19.8809 625.607M198.339 614.38L123.85 611.307M262.493 49.113L324.888 111M262.493 49.113V125M324.888 111L262.493 125M76.3066 23L33 61" stroke="url(#paint0_linear)" stroke-width="2"/>
</g>
<defs>
<filter id="filter0_d" x="-20.8646" y="0.560547" width="425.254" height="682.486" filterUnits="userSpaceOnUse" color-interpolation-filters="sRGB">
<feFlood flood-opacity="0" result="BackgroundImageFix"/>
<feColorMatrix in="SourceAlpha" type="matrix" values="0 0 0 0 0 0 0 0 0 0 0 0 0 0 0 0 0 0 127 0"/>
<feOffset dx="-30" dy="-10"/>
<feGaussianBlur stdDeviation="5"/>
<feColorMatrix type="matrix" values="0 0 0 0 0 0 0 0 0 0 0 0 0 0 0 0 0 0 1 0"/>
<feBlend mode="normal" in2="BackgroundImageFix" result="effect1_dropShadow"/>
<feBlend mode="normal" in="SourceGraphic" in2="effect1_dropShadow" result="shape"/>
</filter>
<linearGradient id="paint0_linear" x1="602.594" y1="305.571" x2="-320.996" y2="31.8618" gradientUnits="userSpaceOnUse">
<stop stop-color="white" stop-opacity="0.07"/>
<stop offset="0.276014" stop-color="white"/>
<stop offset="1" stop-color="white" stop-opacity="0"/>
</linearGradient>
</defs>
</svg>
