<svg width="30" height="30" viewBox="0 0 30 30" fill="none" xmlns="http://www.w3.org/2000/svg">
<path d="M29.9571 11.558C29.8537 11.2398 29.5787 11.0079 29.2477 10.9599L19.9475 9.60839L15.7883 1.18106C15.6403 0.881064 15.3347 0.691162 15.0002 0.691162C14.6656 0.691162 14.3601 0.881064 14.212 1.18106L10.0526 9.60839L0.752639 10.9599C0.421644 11.0079 0.146547 11.2398 0.0431882 11.558C-0.0602294 11.8762 0.0260203 12.2255 0.265609 12.459L6.99496 19.0188L5.40661 28.2814C5.35 28.6112 5.48559 28.9443 5.75623 29.141C5.90934 29.2522 6.09068 29.3088 6.27291 29.3088C6.41283 29.3088 6.55322 29.2755 6.68178 29.2079L15.0001 24.8346L23.3181 29.2078C23.6143 29.3635 23.9731 29.3376 24.2437 29.141C24.5144 28.9443 24.65 28.611 24.5935 28.2813L23.0046 19.0188L29.7347 12.4589C29.9742 12.2255 30.0605 11.8762 29.9571 11.558Z" fill="white"/>
</svg>
